<svg width="250" height="75" viewBox="0 0 250 75" fill="none" xmlns="http://www.w3.org/2000/svg">
<g filter="url(#filter0_d_1_32)">
<path d="M183.678 22.509C190.132 21.5907 207.432 20.3052 225 22.509V26.6019C222.009 26.9954 214.311 27.7668 207.448 27.7038V52.6546C206.477 53.363 203.874 54.3547 201.23 52.6546V27.7038C198.291 27.7301 190.667 27.5464 183.678 26.6019V22.509Z" fill="white"/>
<path d="M171.084 22.0368C172.029 21.3809 174.642 20.4626 177.538 22.0368V52.4972C176.541 53.2056 173.855 54.1974 171.084 52.4972V22.0368Z" fill="white"/>
<path fill-rule="evenodd" clip-rule="evenodd" d="M121.97 24.6342C128.24 22.0368 145.142 18.4004 162.584 24.6342V35.3386L158.569 37.3851L162.584 39.4315V50.2147C156.418 52.7334 139.663 56.2595 121.97 50.2147V24.6342ZM156.759 28.4122C145.425 24.8861 132.674 26.943 127.715 28.4122V46.3579C139.679 50.01 152.063 47.8796 156.759 46.3579V41.3205L153.375 39.9825H130.549V34.7877H153.375L156.759 33.2922V28.4122Z" fill="white"/>
<path d="M73.4061 24.4768C80.2014 21.8531 97.8375 18.18 114.02 24.4768V35.1812L110.006 37.2276L114.02 39.2741V49.8998L108.432 51.6314V41.2418L104.732 39.825H81.9067V34.5515H104.732L108.432 33.2135V28.2548C103.604 26.7331 90.9898 24.6027 79.1519 28.2548V51.6314L73.4848 49.9785L73.4061 24.4768Z" fill="white"/>
<path fill-rule="evenodd" clip-rule="evenodd" d="M25 24.6342C31.3754 22.0105 48.4081 18.3374 65.5352 24.6342V50.0572C59.2385 52.6809 42.316 56.354 25 50.0572V24.6342ZM59.7895 28.4122C47.8257 24.7601 35.4946 26.8905 30.8245 28.4122V46.2792C43.229 49.7424 55.303 47.7222 59.7895 46.2792V28.4122Z" fill="white"/>
</g>
<defs>
<filter id="filter0_d_1_32" x="23" y="19" width="208" height="40.5934" filterUnits="userSpaceOnUse" color-interpolation-filters="sRGB">
<feFlood flood-opacity="0" result="BackgroundImageFix"/>
<feColorMatrix in="SourceAlpha" type="matrix" values="0 0 0 0 0 0 0 0 0 0 0 0 0 0 0 0 0 0 127 0" result="hardAlpha"/>
<feOffset dx="2" dy="2"/>
<feGaussianBlur stdDeviation="2"/>
<feComposite in2="hardAlpha" operator="out"/>
<feColorMatrix type="matrix" values="0 0 0 0 0 0 0 0 0 0 0 0 0 0 0 0 0 0 0.25 0"/>
<feBlend mode="normal" in2="BackgroundImageFix" result="effect1_dropShadow_1_32"/>
<feBlend mode="normal" in="SourceGraphic" in2="effect1_dropShadow_1_32" result="shape"/>
</filter>
</defs>
</svg>
